#Comment line ignore any data following # character 
#Hierarchical Translation and Rotation (.htr) file 
[Header]	
#Header keywords are followed by a single value 
FileType HTR		#Single word string
DataType HTRS		#Translation followed by rotation and scale data
FileVersion 1		#integer
NumSegments 84		#integer
NumFrames 2		#integer
DataFrameRate 30		#integer, data frame rate in this file
EulerRotationOrder ZYX
CalibrationUnits mm
RotationUnits Degrees
GlobalAxisofGravity Y
BoneLengthAxis Y
ScaleFactor 1.00
[SegmentNames&Hierarchy]
#CHILD	PARENT
MASTER GLOBAL
root MASTER
chest root
L_mid_tent01 root
R_mid_tent01 root
spine01 root
Bip01_Neck chest
L_humerus chest
R_humerus chest
weapon_bone chest
Bip01_Head Bip01_Neck
eye_left_bone Bip01_Head
eye_right_bone Bip01_Head
L_forearm L_humerus
L_front_hand L_forearm
L_weapon_bone L_forearm
L_front_hand01_01 L_front_hand
L_front_hand02_01 L_front_hand
L_front_hand03_01 L_front_hand
L_front_hand01_02 L_front_hand01_01
L_front_hand02_02 L_front_hand02_01
L_front_hand03_02 L_front_hand03_01
R_forearm R_humerus
R_front_hand R_forearm
R_weapon_bone R_forearm
R_front_hand01_01 R_front_hand
R_front_hand02_01 R_front_hand
R_front_hand03_01 R_front_hand
R_front_hand01_02 R_front_hand01_01
R_front_hand02_02 R_front_hand02_01
R_front_hand03_02 R_front_hand03_01
null_rope01_connect L_mid_tent01
Rope1_Seg01 null_rope01_connect
Rope1_Seg02 Rope1_Seg01
Rope1_Seg03 Rope1_Seg02
Rope1_Seg04 Rope1_Seg03
Rope1_Seg05 Rope1_Seg04
Rope1_Seg06 Rope1_Seg05
Rope1_Seg07 Rope1_Seg06
Rope1_Seg09 Rope1_Seg07
L_mid_hand01 Rope1_Seg09
L_mid_hand02 Rope1_Seg09
L_mid_hand03 Rope1_Seg09
null_rope02_connect R_mid_tent01
Rope2_Seg01 null_rope02_connect
Rope2_Seg02 Rope2_Seg01
Rope2_Seg03 Rope2_Seg02
Rope2_Seg04 Rope2_Seg03
Rope2_Seg05 Rope2_Seg04
Rope2_Seg06 Rope2_Seg05
Rope2_Seg07 Rope2_Seg06
Rope2_Seg09 Rope2_Seg07
R_mid_hand01 Rope2_Seg09
R_mid_hand02 Rope2_Seg09
R_mid_hand03 Rope2_Seg09
spine02 spine01
spine03 spine02
pelvis spine03
null_rope03_connect pelvis
null_rope04_connect pelvis
Rope3_Seg01 null_rope03_connect
Rope3_Seg02 Rope3_Seg01
Rope3_Seg03 Rope3_Seg02
Rope3_Seg04 Rope3_Seg03
Rope3_Seg05 Rope3_Seg04
Rope3_Seg06 Rope3_Seg05
Rope3_Seg07 Rope3_Seg06
Rope3_Seg08 Rope3_Seg07
Rope3_Seg09 Rope3_Seg08
R_rear_hand01 Rope3_Seg09
R_rear_hand02 Rope3_Seg09
R_rear_hand03 Rope3_Seg09
Rope4_Seg01 null_rope04_connect
Rope4_Seg02 Rope4_Seg01
Rope4_Seg03 Rope4_Seg02
Rope4_Seg04 Rope4_Seg03
Rope4_Seg05 Rope4_Seg04
Rope4_Seg06 Rope4_Seg05
Rope4_Seg07 Rope4_Seg06
Rope4_Seg08 Rope4_Seg07
Rope4_Seg09 Rope4_Seg08
L_rear_hand01 Rope4_Seg09
L_rear_hand02 Rope4_Seg09
L_rear_hand03 Rope4_Seg09
[BasePosition]
#SegmentName Tx, Ty, Tz, Rx, Ry, Rz, BoneLength
MASTER 0.000000 0.000000 0.000000 -90.000000 0.000000 0.000000 10.000000 
root 0.000000 0.000000 0.000000 0.000000 0.000000 0.000000 10.000000 
chest 0.000000 0.000000 0.000000 0.000000 0.000000 0.000000 10.000000 
L_mid_tent01 0.000000 0.000000 0.000000 0.000000 0.000000 0.000000 10.000000 
R_mid_tent01 0.000000 0.000000 0.000000 0.000000 0.000000 0.000000 10.000000 
spine01 0.000000 0.000000 0.000000 0.000000 0.000000 0.000000 10.000000 
Bip01_Neck 0.000000 0.000000 0.000000 0.000000 0.000000 0.000000 10.000000 
L_humerus 0.000000 0.000000 0.000000 0.000000 0.000000 0.000000 10.000000 
R_humerus 0.000000 0.000000 0.000000 0.000000 0.000000 0.000000 10.000000 
weapon_bone 0.000000 0.000000 0.000000 0.000000 0.000000 0.000000 10.000000 
Bip01_Head 0.000000 0.000000 0.000000 0.000000 0.000000 0.000000 10.000000 
eye_left_bone 0.000000 0.000000 0.000000 0.000000 0.000000 0.000000 10.000000 
eye_right_bone 0.000000 0.000000 0.000000 0.000000 0.000000 0.000000 10.000000 
L_forearm 0.000000 0.000000 0.000000 0.000000 0.000000 0.000000 10.000000 
L_front_hand 0.000000 0.000000 0.000000 0.000000 0.000000 0.000000 10.000000 
L_weapon_bone 0.000000 0.000000 0.000000 0.000000 0.000000 0.000000 10.000000 
L_front_hand01_01 0.000000 0.000000 0.000000 0.000000 0.000000 0.000000 10.000000 
L_front_hand02_01 0.000000 0.000000 0.000000 0.000000 0.000000 0.000000 10.000000 
L_front_hand03_01 0.000000 0.000000 0.000000 0.000000 0.000000 0.000000 10.000000 
L_front_hand01_02 0.000000 0.000000 0.000000 0.000000 0.000000 0.000000 10.000000 
L_front_hand02_02 0.000000 0.000000 0.000000 0.000000 0.000000 0.000000 10.000000 
L_front_hand03_02 0.000000 0.000000 0.000000 0.000000 0.000000 0.000000 10.000000 
R_forearm 0.000000 0.000000 0.000000 0.000000 0.000000 0.000000 10.000000 
R_front_hand 0.000000 0.000000 0.000000 0.000000 0.000000 0.000000 10.000000 
R_weapon_bone 0.000000 0.000000 0.000000 0.000000 0.000000 0.000000 10.000000 
R_front_hand01_01 0.000000 0.000000 0.000000 0.000000 0.000000 0.000000 10.000000 
R_front_hand02_01 0.000000 0.000000 0.000000 0.000000 0.000000 0.000000 10.000000 
R_front_hand03_01 0.000000 0.000000 0.000000 0.000000 0.000000 0.000000 10.000000 
R_front_hand01_02 0.000000 0.000000 0.000000 0.000000 0.000000 0.000000 10.000000 
R_front_hand02_02 0.000000 0.000000 0.000000 0.000000 0.000000 0.000000 10.000000 
R_front_hand03_02 0.000000 0.000000 0.000000 0.000000 0.000000 0.000000 10.000000 
null_rope01_connect 0.000000 0.000000 0.000000 0.000000 0.000000 0.000000 10.000000 
Rope1_Seg01 0.000000 0.000000 0.000000 0.000000 0.000000 0.000000 10.000000 
Rope1_Seg02 0.000000 0.000000 0.000000 0.000000 0.000000 0.000000 10.000000 
Rope1_Seg03 0.000000 0.000000 0.000000 0.000000 0.000000 0.000000 10.000000 
Rope1_Seg04 0.000000 0.000000 0.000000 0.000000 0.000000 0.000000 10.000000 
Rope1_Seg05 0.000000 0.000000 0.000000 0.000000 0.000000 0.000000 10.000000 
Rope1_Seg06 0.000000 0.000000 0.000000 0.000000 0.000000 0.000000 10.000000 
Rope1_Seg07 0.000000 0.000000 0.000000 0.000000 0.000000 0.000000 10.000000 
Rope1_Seg09 0.000000 0.000000 0.000000 0.000000 0.000000 0.000000 10.000000 
L_mid_hand01 0.000000 0.000000 0.000000 0.000000 0.000000 0.000000 10.000000 
L_mid_hand02 0.000000 0.000000 0.000000 0.000000 0.000000 0.000000 10.000000 
L_mid_hand03 0.000000 0.000000 0.000000 0.000000 0.000000 0.000000 10.000000 
null_rope02_connect 0.000000 0.000000 0.000000 0.000000 0.000000 0.000000 10.000000 
Rope2_Seg01 0.000000 0.000000 0.000000 0.000000 0.000000 0.000000 10.000000 
Rope2_Seg02 0.000000 0.000000 0.000000 0.000000 0.000000 0.000000 10.000000 
Rope2_Seg03 0.000000 0.000000 0.000000 0.000000 0.000000 0.000000 10.000000 
Rope2_Seg04 0.000000 0.000000 0.000000 0.000000 0.000000 0.000000 10.000000 
Rope2_Seg05 0.000000 0.000000 0.000000 0.000000 0.000000 0.000000 10.000000 
Rope2_Seg06 0.000000 0.000000 0.000000 0.000000 0.000000 0.000000 10.000000 
Rope2_Seg07 0.000000 0.000000 0.000000 0.000000 0.000000 0.000000 10.000000 
Rope2_Seg09 0.000000 0.000000 0.000000 0.000000 0.000000 0.000000 10.000000 
R_mid_hand01 0.000000 0.000000 0.000000 0.000000 0.000000 0.000000 10.000000 
R_mid_hand02 0.000000 0.000000 0.000000 0.000000 0.000000 0.000000 10.000000 
R_mid_hand03 0.000000 0.000000 0.000000 0.000000 0.000000 0.000000 10.000000 
spine02 0.000000 0.000000 0.000000 0.000000 0.000000 0.000000 10.000000 
spine03 0.000000 0.000000 0.000000 0.000000 0.000000 0.000000 10.000000 
pelvis 0.000000 0.000000 0.000000 0.000000 0.000000 0.000000 10.000000 
null_rope03_connect 0.000000 0.000000 0.000000 0.000000 0.000000 0.000000 10.000000 
null_rope04_connect 0.000000 0.000000 0.000000 0.000000 0.000000 0.000000 10.000000 
Rope3_Seg01 0.000000 0.000000 0.000000 0.000000 0.000000 0.000000 10.000000 
Rope3_Seg02 0.000000 0.000000 0.000000 0.000000 0.000000 0.000000 10.000000 
Rope3_Seg03 0.000000 0.000000 0.000000 0.000000 0.000000 0.000000 10.000000 
Rope3_Seg04 0.000000 0.000000 0.000000 0.000000 0.000000 0.000000 10.000000 
Rope3_Seg05 0.000000 0.000000 0.000000 0.000000 0.000000 0.000000 10.000000 
Rope3_Seg06 0.000000 0.000000 0.000000 0.000000 0.000000 0.000000 10.000000 
Rope3_Seg07 0.000000 0.000000 0.000000 0.000000 0.000000 0.000000 10.000000 
Rope3_Seg08 0.000000 0.000000 0.000000 0.000000 0.000000 0.000000 10.000000 
Rope3_Seg09 0.000000 0.000000 0.000000 0.000000 0.000000 0.000000 10.000000 
R_rear_hand01 0.000000 0.000000 0.000000 0.000000 0.000000 0.000000 10.000000 
R_rear_hand02 0.000000 0.000000 0.000000 0.000000 0.000000 0.000000 10.000000 
R_rear_hand03 0.000000 0.000000 0.000000 0.000000 0.000000 0.000000 10.000000 
Rope4_Seg01 0.000000 0.000000 0.000000 0.000000 0.000000 0.000000 10.000000 
Rope4_Seg02 0.000000 0.000000 0.000000 0.000000 0.000000 0.000000 10.000000 
Rope4_Seg03 0.000000 0.000000 0.000000 0.000000 0.000000 0.000000 10.000000 
Rope4_Seg04 0.000000 0.000000 0.000000 0.000000 0.000000 0.000000 10.000000 
Rope4_Seg05 0.000000 0.000000 0.000000 0.000000 0.000000 0.000000 10.000000 
Rope4_Seg06 0.000000 0.000000 0.000000 0.000000 0.000000 0.000000 10.000000 
Rope4_Seg07 0.000000 0.000000 0.000000 0.000000 0.000000 0.000000 10.000000 
Rope4_Seg08 0.000000 0.000000 0.000000 0.000000 0.000000 0.000000 10.000000 
Rope4_Seg09 0.000000 0.000000 0.000000 0.000000 0.000000 0.000000 10.000000 
L_rear_hand01 0.000000 0.000000 0.000000 0.000000 0.000000 0.000000 10.000000 
L_rear_hand02 0.000000 0.000000 0.000000 0.000000 0.000000 0.000000 10.000000 
L_rear_hand03 0.000000 0.000000 0.000000 0.000000 0.000000 0.000000 10.000000 
#Beginning of Data. Separated by tabs
#Fr	Tx	Ty	Tz	Rx	Ry	Rz	SF
[MASTER]
21 -0.000415 2670.732422 3563.140137 0.001660 0.001660 0.001660 4452.951660
22 -0.000436 2799.582275 3509.804688 0.001660 0.001660 0.001660 4489.586914
[root]
21 -33.979027 -57.814640 1502.519897 -92.577232 -6.240997 -92.370209 1504.015625
22 -31.457123 -59.252323 1502.420288 -94.068871 -10.060354 -92.172035 1503.917358
[chest]
21 -84.512650 -34.090519 0.000000 -1.710953 0.855925 -172.376541 91.129311
22 -84.512650 -34.090519 0.000000 -1.759770 0.892071 -174.057190 91.129311
[L_mid_tent01]
21 27.299000 22.179028 -249.918655 -22.476627 21.082819 30.578562 252.381622
22 27.298994 22.179024 -249.918655 -26.087498 19.278135 22.791681 252.381622
[R_mid_tent01]
21 23.228794 24.509907 226.238495 -163.022827 -41.572132 38.806164 228.744751
22 23.228794 24.509907 226.238495 -151.501114 -34.589928 22.385550 228.744751
[spine01]
21 -0.361383 -0.195265 0.000000 0.002099 0.001051 36.819523 0.410763
22 -0.361383 -0.195265 0.000000 0.002094 0.001060 36.314289 0.410763
[Bip01_Neck]
21 165.484543 71.581718 0.000119 176.643677 -1.657967 43.431911 180.302734
22 165.484543 71.581718 0.000119 176.643677 -1.657967 43.431911 180.302734
[L_humerus]
21 -13.983130 -135.272980 -120.471481 167.618576 37.014538 -122.366928 181.680161
22 -13.983130 -135.272980 -120.471481 163.638611 50.822533 -122.103432 181.680161
[R_humerus]
21 -13.983309 -135.273102 125.287651 -165.984009 -32.966278 -120.250305 184.909012
22 -13.983309 -135.273102 125.287651 -163.896439 -47.522949 -117.591995 184.909012
[weapon_bone]
21 235.964890 -300.705902 0.000000 0.000000 -89.951546 -128.212341 382.234833
22 235.964890 -300.705902 0.000000 0.000000 -89.951546 -128.212341 382.234833
[Bip01_Head]
21 213.543701 185.440063 15.335040 3.473996 -4.439471 -5.329133 283.238556
22 213.514404 185.521103 14.289471 2.880306 -3.229584 -8.629837 283.214874
[eye_left_bone]
21 -24.626970 125.451866 -64.772606 0.000000 -90.000000 -99.840431 143.318359
22 -24.626970 125.451866 -64.772606 0.000000 -90.000000 -99.840431 143.318359
[eye_right_bone]
21 -24.626970 125.451866 64.327362 0.000000 -89.965736 80.156380 143.117676
22 -24.626970 125.451866 64.327362 0.000000 -89.965736 80.156380 143.117676
[L_forearm]
21 322.776093 0.000000 -0.000119 0.000425 -0.002308 -110.879707 322.776093
22 322.776093 0.000000 -0.000119 0.000424 -0.002309 -110.795601 322.776093
[L_front_hand]
21 241.149185 -0.042021 -3.300071 -178.667953 -1.835447 -27.422350 241.171753
22 241.149185 -0.042021 -3.300071 -178.667953 -1.835447 -27.422342 241.171753
[L_weapon_bone]
21 156.183838 0.000000 0.000000 0.000014 0.000007 0.000001 156.183838
22 156.183838 0.000000 0.000000 0.000014 0.000007 0.000001 156.183838
[L_front_hand01_01]
21 86.095154 20.947098 -0.655860 -0.306535 -0.513312 68.646957 88.609184
22 86.095154 20.947098 -0.655860 -0.314053 -0.508434 69.417068 88.609184
[L_front_hand02_01]
21 86.935165 -11.437475 24.513514 145.004044 -56.473930 -50.323578 91.046425
22 86.935165 -11.437475 24.513514 145.968994 -56.908298 -51.478970 91.046425
[L_front_hand03_01]
21 86.637497 -14.123976 -20.424902 -145.151382 54.687630 -52.198425 90.126129
22 86.637497 -14.123976 -20.424902 -146.056091 55.123112 -53.303532 90.126129
[L_front_hand01_02]
21 71.020905 -0.000179 0.000030 0.000317 -0.002326 -105.540344 71.020905
22 71.020905 -0.000179 0.000030 0.000318 -0.002326 -105.579170 71.020905
[L_front_hand02_02]
21 71.020927 -0.000119 0.000060 0.000317 -0.002326 -105.540344 71.020927
22 71.020927 -0.000119 0.000060 0.000318 -0.002326 -105.579170 71.020927
[L_front_hand03_02]
21 71.020905 -0.000060 0.000060 0.000317 -0.002326 -105.540344 71.020905
22 71.020905 -0.000060 0.000060 0.000318 -0.002326 -105.579170 71.020905
[R_forearm]
21 322.776428 -0.000060 0.000030 0.201247 0.067755 -109.538811 322.776428
22 322.776428 -0.000060 0.000030 0.201292 0.067621 -109.462112 322.776428
[R_front_hand]
21 238.847015 -0.006795 2.210259 -2.635298 -10.645461 -26.312506 238.857239
22 238.847015 -0.006795 2.210259 -2.635298 -10.645461 -26.312506 238.857239
[R_weapon_bone]
21 155.664093 0.002503 -0.000030 0.003487 0.001180 -90.988930 155.664078
22 155.664093 0.002503 -0.000030 0.003487 0.001180 -90.988930 155.664078
[R_front_hand01_01]
21 87.624611 14.231146 22.918642 -144.694336 -56.325737 50.060089 91.683487
22 87.624611 14.231146 22.918642 -146.552551 -57.155426 52.280727 91.683487
[R_front_hand02_01]
21 89.356956 14.367283 -19.491137 145.240677 54.711182 52.540722 92.579636
22 89.356956 14.367283 -19.491137 146.998062 55.533039 54.685249 92.579636
[R_front_hand03_01]
21 87.286232 -22.307278 -0.143439 0.105409 -0.441003 -68.629555 90.091743
22 87.286232 -22.307278 -0.143439 0.117983 -0.440813 -70.109169 90.091743
[R_front_hand01_02]
21 71.020905 0.000060 0.000119 0.002323 -0.000334 106.381714 71.020905
22 71.020905 0.000060 0.000119 0.002323 -0.000334 106.381714 71.020905
[R_front_hand02_02]
21 71.020844 -0.000030 -0.000119 0.002323 -0.000334 106.381714 71.020836
22 71.020844 -0.000030 -0.000119 0.002323 -0.000334 106.381714 71.020836
[R_front_hand03_02]
21 71.020905 0.000000 0.000030 0.002323 -0.000334 106.381714 71.020905
22 71.020905 0.000000 0.000030 0.002323 -0.000334 106.381714 71.020905
[null_rope01_connect]
21 328.732483 0.000000 -0.000238 -160.631943 -56.305103 -138.497543 328.732483
22 328.732483 0.000000 -0.000238 -157.111435 -53.171844 -130.558655 328.732483
[Rope1_Seg01]
21 0.000020 -0.000175 -0.000157 125.388176 46.133186 156.983932 0.000236
22 0.000021 -0.000182 -0.000164 127.777489 22.604427 -155.794662 0.000246
[Rope1_Seg02]
21 139.999863 -0.000179 0.000000 27.260805 5.662104 -46.222050 139.999863
22 139.999863 -0.000179 0.000000 129.913239 19.861853 -37.573421 139.999863
[Rope1_Seg03]
21 139.999924 0.000060 -0.000060 29.143209 -6.561766 -17.312225 139.999924
22 139.999924 0.000060 -0.000060 28.456402 -13.202631 -1.131568 139.999924
[Rope1_Seg04]
21 139.999924 -0.000060 -0.000119 20.133036 -14.173471 -5.841963 139.999924
22 139.999924 -0.000060 -0.000119 12.310791 -12.275581 2.405458 139.999924
[Rope1_Seg05]
21 139.999832 0.000119 -0.000060 9.034725 -12.015469 -0.073139 139.999832
22 139.999832 0.000119 -0.000060 2.714728 -5.664701 3.037733 139.999832
[Rope1_Seg06]
21 139.999954 0.000119 -0.000060 3.678215 -6.723939 0.677746 139.999954
22 139.999954 0.000119 -0.000060 1.349306 -3.715846 2.244311 139.999954
[Rope1_Seg07]
21 139.999985 0.000060 0.000000 1.943732 -4.379513 0.729242 139.999985
22 139.999985 0.000060 0.000000 0.581726 -1.824430 1.159765 139.999985
[Rope1_Seg09]
21 121.602913 0.000119 -0.000089 -89.793175 -1.359789 0.847147 121.602913
22 121.602913 0.000119 -0.000089 -89.793175 -1.359789 0.847147 121.602913
[L_mid_hand01]
21 103.859421 1.038730 8.195221 130.544388 -67.584534 -38.866955 104.187431
22 103.859421 1.038730 8.195221 130.544373 -67.584534 -38.866947 104.187431
[L_mid_hand02]
21 105.572853 -4.139662 -10.864139 -168.923172 43.409309 -73.498886 106.211075
22 105.572853 -4.139662 -10.864139 -168.923172 43.409309 -73.498886 106.211075
[L_mid_hand03]
21 104.641464 17.579376 -3.913581 -6.012626 17.808172 74.893661 106.179977
22 104.641464 17.579376 -3.913581 -6.012627 17.808174 74.893669 106.179977
[null_rope02_connect]
21 328.732849 0.000179 -0.000119 -148.282364 49.264767 -19.516457 328.732849
22 328.732849 0.000179 -0.000119 -146.312820 51.279003 -34.932030 328.732849
[Rope2_Seg01]
21 0.000096 -0.000101 0.000000 -87.201660 30.737907 -17.156286 0.000139
22 0.000097 -0.000112 0.000000 -82.679924 25.041027 -24.623671 0.000148
[Rope2_Seg02]
21 139.999741 -0.000060 -0.000119 -7.262061 3.025740 2.268648 139.999756
22 139.999741 -0.000060 -0.000119 -10.881269 3.322521 1.892004 139.999756
[Rope2_Seg03]
21 140.000107 0.000030 0.000000 -13.355520 4.338858 4.223639 140.000107
22 140.000107 0.000030 0.000000 -21.107477 4.449234 3.820422 140.000107
[Rope2_Seg04]
21 139.999802 0.000000 -0.000060 -29.309526 7.298344 10.329211 139.999802
22 139.999802 0.000000 -0.000060 -40.830257 6.155027 9.825964 139.999802
[Rope2_Seg05]
21 139.999985 -0.000060 0.000119 -37.819939 2.656245 31.966307 139.999985
22 139.999985 -0.000060 0.000119 -31.628817 -4.547211 23.307981 139.999985
[Rope2_Seg06]
21 139.999893 -0.000030 -0.000119 3.536591 -13.080976 0.522430 139.999893
22 139.999893 -0.000030 -0.000119 6.406848 -11.288786 -1.562985 139.999893
[Rope2_Seg07]
21 139.999893 0.000060 -0.000060 1.324002 -6.741732 0.260585 139.999893
22 139.999893 0.000060 -0.000060 2.269250 -7.481826 0.190359 139.999893
[Rope2_Seg09]
21 121.338966 0.000089 -0.000060 33.793236 -1.359788 -0.847141 121.338966
22 121.338966 0.000089 -0.000060 33.793236 -1.359788 -0.847141 121.338966
[R_mid_hand01]
21 104.680779 11.144459 -10.335981 -16.212063 45.237247 70.462852 105.778534
22 104.680779 11.144459 -10.335981 -16.212063 45.237247 70.462852 105.778534
[R_mid_hand02]
21 104.070427 2.443552 8.231699 49.067368 -67.749771 39.286453 104.424065
22 104.070427 2.443552 8.231699 49.067371 -67.749794 39.286472 104.424065
[R_mid_hand03]
21 106.028137 -11.221827 -5.996406 -177.101105 15.551026 -76.585571 106.788818
22 106.028137 -11.221827 -5.996406 -177.101105 15.551026 -76.585571 106.788818
[spine02]
21 129.756927 0.001550 0.000119 -0.836561 -3.973333 4.035067 129.756927
22 129.756927 0.001550 0.000119 -0.777730 -3.985145 3.191397 129.756927
[spine03]
21 78.614128 0.081638 -4.899020 1.982313 3.787615 17.796371 78.766670
22 78.614136 0.081646 -4.899021 1.977283 3.790671 17.712383 78.766678
[pelvis]
21 169.435242 0.051022 0.000000 -0.069548 -0.178044 16.763090 169.435257
22 169.435242 0.051022 0.000000 -0.069303 -0.178139 16.605656 169.435257
[null_rope03_connect]
21 -1.257226 -2.466202 137.391083 -134.863510 -86.252106 155.732483 137.418976
22 -1.257226 -2.466202 137.391083 -144.112457 -85.027878 170.354141 137.418976
[null_rope04_connect]
21 -1.259640 -2.480268 -137.844437 -134.863510 -86.252106 155.732483 137.872513
22 -1.259640 -2.480268 -137.844437 -144.112457 -85.027878 170.354141 137.872513
[Rope3_Seg01]
21 -0.000029 -0.000019 0.000157 -123.852119 43.609940 -61.201687 0.000160
22 -0.000029 -0.000018 0.000164 -125.588654 41.008759 -63.792519 0.000168
[Rope3_Seg02]
21 139.999924 -0.000119 0.000060 0.134375 2.273232 4.690117 139.999924
22 139.999924 -0.000119 0.000060 0.167683 2.722891 3.860149 139.999924
[Rope3_Seg03]
21 139.999924 -0.000119 0.000119 0.044482 1.806455 3.970087 139.999924
22 139.999924 -0.000119 0.000119 0.036563 1.524551 3.365993 139.999924
[Rope3_Seg04]
21 139.999924 0.000119 0.000000 -0.164009 1.378061 3.917719 139.999924
22 139.999924 0.000119 0.000000 -0.187906 0.694286 3.007896 139.999924
[Rope3_Seg05]
21 139.999924 -0.000238 0.000060 0.212351 1.299628 1.567050 139.999924
22 139.999924 -0.000238 0.000060 0.709841 2.985331 -0.162904 139.999924
[Rope3_Seg06]
21 139.999893 -0.000119 -0.000060 0.793295 1.418839 -0.379272 139.999893
22 139.999893 -0.000119 -0.000060 1.597008 4.799785 -2.337534 139.999893
[Rope3_Seg07]
21 139.999771 0.000060 -0.000119 0.845619 1.333283 -0.156674 139.999771
22 139.999771 0.000060 -0.000119 1.426818 3.601143 -1.418285 139.999771
[Rope3_Seg08]
21 139.999985 -0.000060 0.000000 0.754850 0.999668 0.161567 139.999985
22 139.999985 -0.000060 0.000000 1.222144 2.534648 -0.960750 139.999985
[Rope3_Seg09]
21 90.185997 -0.000179 -0.000060 89.793228 -1.359877 -0.847183 90.185997
22 90.185997 -0.000179 -0.000060 89.793228 -1.359877 -0.847183 90.185997
[R_rear_hand01]
21 103.366196 -6.073594 -10.757982 -177.714203 24.565958 -73.910942 104.101845
22 103.366196 -6.073594 -10.757982 -177.714203 24.565966 -73.910957 104.101845
[R_rear_hand02]
21 100.509819 12.039542 -7.992327 -12.874827 36.868488 72.167213 101.543350
22 100.509819 12.039542 -7.992327 -12.874831 36.868492 72.167221 101.543350
[R_rear_hand03]
21 101.539970 5.215704 5.435467 71.484589 -71.816643 21.513813 101.819031
22 101.539970 5.215704 5.435467 71.484581 -71.816628 21.513813 101.819031
[Rope4_Seg01]
21 0.000010 0.000019 -0.000074 30.233509 19.309420 -146.184540 0.000077
22 0.000010 0.000018 -0.000070 36.667358 13.586641 -140.411346 0.000073
[Rope4_Seg02]
21 139.999985 0.000060 0.000119 -0.679471 5.628789 1.052699 139.999985
22 139.999985 0.000060 0.000119 -1.191474 4.126637 -0.560940 139.999985
[Rope4_Seg03]
21 139.999924 0.000000 -0.000238 -0.569184 9.391467 2.113675 139.999924
22 139.999924 0.000000 -0.000238 -1.513557 7.041192 -0.626669 139.999924
[Rope4_Seg04]
21 139.999985 0.000000 0.000119 2.445797 24.981560 11.046286 139.999985
22 139.999985 0.000000 0.000119 -1.379354 20.648277 0.725696 139.999985
[Rope4_Seg05]
21 139.999802 -0.000060 -0.000119 1.609188 -0.243739 -14.762353 139.999802
22 139.999802 -0.000060 -0.000119 -0.032156 -7.137414 -9.561202 139.999802
[Rope4_Seg06]
21 139.999924 0.000000 0.000060 0.350353 -4.095051 -7.384800 139.999924
22 139.999924 0.000000 0.000060 -0.167371 -4.394011 -3.724349 139.999924
[Rope4_Seg07]
21 139.999802 0.000000 0.000000 -0.029716 -0.548185 -2.748289 139.999802
22 139.999802 0.000000 0.000000 -0.209415 -1.361902 -1.801226 139.999802
[Rope4_Seg08]
21 139.999924 0.000000 0.000119 -1.572112 -0.306269 -1.532443 139.999924
22 139.999924 0.000000 0.000119 -1.673139 -0.770129 -1.025830 139.999924
[Rope4_Seg09]
21 90.185791 0.000060 0.000060 -135.617828 2.228885 0.850567 90.185791
22 90.185791 0.000060 0.000060 -135.617828 2.228885 0.850567 90.185791
[L_rear_hand01]
21 101.696655 -8.392275 -7.654577 -12.874829 -36.868488 107.832764 102.329041
22 101.696655 -8.392275 -7.654577 -12.874829 -36.868488 107.832764 102.329041
[L_rear_hand02]
21 102.726799 -1.568258 5.773216 71.484619 71.816643 158.486160 102.900848
22 102.726799 -1.568258 5.773216 71.484589 71.816643 158.486160 102.900848
[L_rear_hand03]
21 104.552910 9.721220 -10.420293 -177.714203 -24.565960 -106.089035 105.519653
22 104.552910 9.721220 -10.420293 -177.714203 -24.565960 -106.089035 105.519653
